<mxfile host="app.diagrams.net" agent="Mozilla/5.0 (Windows NT 10.0; Win64; x64) AppleWebKit/537.36 (KHTML, like Gecko) Chrome/135.0.0.0 Safari/537.36" version="26.2.12">
  <diagram name="第 1 页" id="WY_2qwwLoTZWnqwvN1N5">
    <mxGraphModel dx="2869" dy="1922" grid="1" gridSize="10" guides="1" tooltips="1" connect="1" arrows="1" fold="1" page="1" pageScale="1" pageWidth="827" pageHeight="1169" math="1" shadow="0">
      <root>
        <mxCell id="0" />
        <mxCell id="1" parent="0" />
        <mxCell id="pogm34RaVMidR476hEA9-1" value="" style="rounded=1;whiteSpace=wrap;html=1;fontFamily=Helvetica;fontSize=18;labelBackgroundColor=default;fillColor=#dae8fc;strokeColor=#6c8ebf;" parent="1" vertex="1">
          <mxGeometry x="-1097.81" y="-1050" width="427.81" height="104" as="geometry" />
        </mxCell>
        <mxCell id="pogm34RaVMidR476hEA9-2" value="" style="rounded=1;whiteSpace=wrap;html=1;fontFamily=Helvetica;fontSize=18;labelBackgroundColor=default;fillColor=#dae8fc;strokeColor=#6c8ebf;opacity=60;" parent="1" vertex="1">
          <mxGeometry x="-1097.81" y="-920" width="427.81" height="64" as="geometry" />
        </mxCell>
        <mxCell id="pogm34RaVMidR476hEA9-3" value="" style="rounded=0;whiteSpace=wrap;html=1;fillColor=#f5f5f5;strokeColor=#666666;fontColor=#333333;fontSize=18;" parent="1" vertex="1">
          <mxGeometry x="-1078.12" y="-810.31" width="84.38" height="115" as="geometry" />
        </mxCell>
        <mxCell id="pogm34RaVMidR476hEA9-4" style="edgeStyle=orthogonalEdgeStyle;curved=1;rounded=0;orthogonalLoop=1;jettySize=auto;html=1;entryX=0.5;entryY=0;entryDx=0;entryDy=0;strokeColor=#009999;endArrow=classicThin;endFill=1;fontSize=18;" parent="1" source="pogm34RaVMidR476hEA9-6" target="pogm34RaVMidR476hEA9-8" edge="1">
          <mxGeometry relative="1" as="geometry" />
        </mxCell>
        <mxCell id="pogm34RaVMidR476hEA9-5" style="edgeStyle=none;shape=connector;rounded=0;orthogonalLoop=1;jettySize=auto;html=1;entryX=0;entryY=0;entryDx=0;entryDy=0;strokeColor=#009999;align=center;verticalAlign=middle;fontFamily=Helvetica;fontSize=18;fontColor=default;labelBackgroundColor=default;endArrow=classicThin;endFill=1;" parent="1" source="pogm34RaVMidR476hEA9-6" target="pogm34RaVMidR476hEA9-7" edge="1">
          <mxGeometry relative="1" as="geometry" />
        </mxCell>
        <mxCell id="pogm34RaVMidR476hEA9-6" value="" style="ellipse;whiteSpace=wrap;html=1;aspect=fixed;fillColor=#b0e3e6;strokeColor=#0e8088;fontSize=18;" parent="1" vertex="1">
          <mxGeometry x="-1063.7399999999998" y="-785.31" width="15" height="15" as="geometry" />
        </mxCell>
        <mxCell id="pogm34RaVMidR476hEA9-7" value="" style="ellipse;whiteSpace=wrap;html=1;aspect=fixed;fillColor=#b0e3e6;strokeColor=#0e8088;opacity=30;fontSize=18;" parent="1" vertex="1">
          <mxGeometry x="-1020.9299999999998" y="-770.31" width="15" height="15" as="geometry" />
        </mxCell>
        <mxCell id="pogm34RaVMidR476hEA9-8" value="" style="ellipse;whiteSpace=wrap;html=1;aspect=fixed;fillColor=#b0e3e6;strokeColor=#0e8088;opacity=30;fontSize=18;" parent="1" vertex="1">
          <mxGeometry x="-1063.7399999999998" y="-745.31" width="15" height="15" as="geometry" />
        </mxCell>
        <mxCell id="pogm34RaVMidR476hEA9-9" value="" style="rounded=0;whiteSpace=wrap;html=1;fillColor=#f5f5f5;strokeColor=#666666;fontColor=#333333;fontSize=18;" parent="1" vertex="1">
          <mxGeometry x="-929.9999999999999" y="-810.31" width="84.38" height="115" as="geometry" />
        </mxCell>
        <mxCell id="pogm34RaVMidR476hEA9-10" style="rounded=0;orthogonalLoop=1;jettySize=auto;html=1;entryX=0.5;entryY=0;entryDx=0;entryDy=0;strokeColor=#009999;endArrow=classicThin;endFill=1;fontSize=18;" parent="1" source="pogm34RaVMidR476hEA9-13" target="pogm34RaVMidR476hEA9-15" edge="1">
          <mxGeometry relative="1" as="geometry" />
        </mxCell>
        <mxCell id="pogm34RaVMidR476hEA9-11" style="rounded=0;orthogonalLoop=1;jettySize=auto;html=1;entryX=0;entryY=0;entryDx=0;entryDy=0;strokeColor=#009999;align=center;verticalAlign=middle;fontFamily=Helvetica;fontSize=18;fontColor=default;labelBackgroundColor=default;endArrow=classicThin;endFill=1;" parent="1" source="pogm34RaVMidR476hEA9-13" target="pogm34RaVMidR476hEA9-16" edge="1">
          <mxGeometry relative="1" as="geometry" />
        </mxCell>
        <mxCell id="pogm34RaVMidR476hEA9-12" style="edgeStyle=none;shape=connector;rounded=0;orthogonalLoop=1;jettySize=auto;html=1;entryX=0.5;entryY=0;entryDx=0;entryDy=0;strokeColor=#009999;align=center;verticalAlign=middle;fontFamily=Helvetica;fontSize=18;fontColor=default;labelBackgroundColor=default;endArrow=classicThin;endFill=1;" parent="1" source="pogm34RaVMidR476hEA9-13" target="pogm34RaVMidR476hEA9-14" edge="1">
          <mxGeometry relative="1" as="geometry" />
        </mxCell>
        <mxCell id="pogm34RaVMidR476hEA9-13" value="" style="ellipse;whiteSpace=wrap;html=1;aspect=fixed;fillColor=#b0e3e6;strokeColor=#0e8088;fontSize=18;" parent="1" vertex="1">
          <mxGeometry x="-919.9999999999998" y="-800.31" width="15" height="15" as="geometry" />
        </mxCell>
        <mxCell id="pogm34RaVMidR476hEA9-14" value="" style="ellipse;whiteSpace=wrap;html=1;aspect=fixed;fillColor=#b0e3e6;strokeColor=#0e8088;opacity=30;fontSize=18;" parent="1" vertex="1">
          <mxGeometry x="-891.2499999999999" y="-753.1199999999999" width="15" height="15" as="geometry" />
        </mxCell>
        <mxCell id="pogm34RaVMidR476hEA9-15" value="" style="ellipse;whiteSpace=wrap;html=1;aspect=fixed;fillColor=#b0e3e6;strokeColor=#0e8088;opacity=30;fontSize=18;" parent="1" vertex="1">
          <mxGeometry x="-913.7499999999999" y="-745.31" width="15" height="15" as="geometry" />
        </mxCell>
        <mxCell id="pogm34RaVMidR476hEA9-16" value="" style="ellipse;whiteSpace=wrap;html=1;aspect=fixed;fillColor=#b0e3e6;strokeColor=#0e8088;opacity=30;fontSize=18;" parent="1" vertex="1">
          <mxGeometry x="-868.7499999999999" y="-770.31" width="15" height="15" as="geometry" />
        </mxCell>
        <mxCell id="pogm34RaVMidR476hEA9-17" value="" style="rounded=0;whiteSpace=wrap;html=1;fillColor=#f5f5f5;strokeColor=#666666;fontColor=#333333;fontSize=18;" parent="1" vertex="1">
          <mxGeometry x="-790" y="-810.31" width="84.38" height="115" as="geometry" />
        </mxCell>
        <mxCell id="pogm34RaVMidR476hEA9-18" style="edgeStyle=none;shape=connector;rounded=0;orthogonalLoop=1;jettySize=auto;html=1;entryX=0;entryY=0.5;entryDx=0;entryDy=0;strokeColor=#009999;align=center;verticalAlign=middle;fontFamily=Helvetica;fontSize=18;fontColor=default;labelBackgroundColor=default;endArrow=classicThin;endFill=1;" parent="1" source="pogm34RaVMidR476hEA9-22" target="pogm34RaVMidR476hEA9-23" edge="1">
          <mxGeometry relative="1" as="geometry" />
        </mxCell>
        <mxCell id="pogm34RaVMidR476hEA9-19" style="edgeStyle=none;shape=connector;rounded=0;orthogonalLoop=1;jettySize=auto;html=1;entryX=0;entryY=0;entryDx=0;entryDy=0;strokeColor=#009999;align=center;verticalAlign=middle;fontFamily=Helvetica;fontSize=18;fontColor=default;labelBackgroundColor=default;endArrow=classicThin;endFill=1;" parent="1" source="pogm34RaVMidR476hEA9-22" target="pogm34RaVMidR476hEA9-26" edge="1">
          <mxGeometry relative="1" as="geometry" />
        </mxCell>
        <mxCell id="pogm34RaVMidR476hEA9-20" style="edgeStyle=none;shape=connector;rounded=0;orthogonalLoop=1;jettySize=auto;html=1;entryX=0.5;entryY=1;entryDx=0;entryDy=0;strokeColor=#009999;align=center;verticalAlign=middle;fontFamily=Helvetica;fontSize=18;fontColor=default;labelBackgroundColor=default;endArrow=classicThin;endFill=1;" parent="1" source="pogm34RaVMidR476hEA9-22" target="pogm34RaVMidR476hEA9-24" edge="1">
          <mxGeometry relative="1" as="geometry" />
        </mxCell>
        <mxCell id="pogm34RaVMidR476hEA9-21" style="edgeStyle=none;shape=connector;rounded=0;orthogonalLoop=1;jettySize=auto;html=1;entryX=0.5;entryY=0;entryDx=0;entryDy=0;strokeColor=#009999;align=center;verticalAlign=middle;fontFamily=Helvetica;fontSize=18;fontColor=default;labelBackgroundColor=default;endArrow=classicThin;endFill=1;" parent="1" source="pogm34RaVMidR476hEA9-22" target="pogm34RaVMidR476hEA9-25" edge="1">
          <mxGeometry relative="1" as="geometry" />
        </mxCell>
        <mxCell id="pogm34RaVMidR476hEA9-22" value="" style="ellipse;whiteSpace=wrap;html=1;aspect=fixed;fillColor=#b0e3e6;strokeColor=#0e8088;fontSize=18;" parent="1" vertex="1">
          <mxGeometry x="-775.6199999999999" y="-790" width="15" height="15" as="geometry" />
        </mxCell>
        <mxCell id="pogm34RaVMidR476hEA9-23" value="" style="ellipse;whiteSpace=wrap;html=1;aspect=fixed;fillColor=#b0e3e6;strokeColor=#0e8088;opacity=30;fontSize=18;" parent="1" vertex="1">
          <mxGeometry x="-730" y="-800.31" width="15" height="15" as="geometry" />
        </mxCell>
        <mxCell id="pogm34RaVMidR476hEA9-24" value="" style="ellipse;whiteSpace=wrap;html=1;aspect=fixed;fillColor=#b0e3e6;strokeColor=#0e8088;opacity=30;direction=west;fontSize=18;" parent="1" vertex="1">
          <mxGeometry x="-755.31" y="-745.31" width="15" height="15" as="geometry" />
        </mxCell>
        <mxCell id="pogm34RaVMidR476hEA9-25" value="" style="ellipse;whiteSpace=wrap;html=1;aspect=fixed;fillColor=#b0e3e6;strokeColor=#0e8088;opacity=30;fontSize=18;" parent="1" vertex="1">
          <mxGeometry x="-785.31" y="-740" width="14.69" height="14.69" as="geometry" />
        </mxCell>
        <mxCell id="pogm34RaVMidR476hEA9-26" value="" style="ellipse;whiteSpace=wrap;html=1;aspect=fixed;fillColor=#b0e3e6;strokeColor=#0e8088;opacity=30;fontSize=18;" parent="1" vertex="1">
          <mxGeometry x="-730.62" y="-768.1199999999999" width="15" height="15" as="geometry" />
        </mxCell>
        <mxCell id="pogm34RaVMidR476hEA9-27" value="" style="endArrow=classic;html=1;rounded=0;fontSize=18;" parent="1" edge="1">
          <mxGeometry width="50" height="50" relative="1" as="geometry">
            <mxPoint x="-1110" y="-687" as="sourcePoint" />
            <mxPoint x="-624.68" y="-686.9799999999999" as="targetPoint" />
          </mxGeometry>
        </mxCell>
        <mxCell id="pogm34RaVMidR476hEA9-29" value="&lt;font face=&quot;Times New Roman&quot;&gt;0&lt;/font&gt;" style="text;html=1;align=center;verticalAlign=middle;resizable=0;points=[];autosize=1;strokeColor=none;fillColor=none;fontSize=18;" parent="1" vertex="1">
          <mxGeometry x="-1050.9299999999998" y="-685" width="30" height="40" as="geometry" />
        </mxCell>
        <mxCell id="pogm34RaVMidR476hEA9-30" value="&lt;font face=&quot;Times New Roman&quot;&gt;$$t_i$$&lt;/font&gt;" style="text;html=1;align=center;verticalAlign=middle;resizable=0;points=[];autosize=1;strokeColor=none;fillColor=none;fontSize=18;" parent="1" vertex="1">
          <mxGeometry x="-923.75" y="-685" width="80" height="40" as="geometry" />
        </mxCell>
        <mxCell id="pogm34RaVMidR476hEA9-31" value="&lt;font face=&quot;Times New Roman&quot;&gt;$$t$$&lt;/font&gt;" style="text;html=1;align=center;verticalAlign=middle;resizable=0;points=[];autosize=1;strokeColor=none;fillColor=none;fontSize=18;" parent="1" vertex="1">
          <mxGeometry x="-775.62" y="-685" width="60" height="40" as="geometry" />
        </mxCell>
        <mxCell id="pogm34RaVMidR476hEA9-32" value="&lt;b&gt;&lt;font&gt;...&lt;/font&gt;&lt;/b&gt;" style="text;html=1;align=center;verticalAlign=middle;whiteSpace=wrap;rounded=0;fontSize=18;" parent="1" vertex="1">
          <mxGeometry x="-845.31" y="-755.31" width="60" height="30" as="geometry" />
        </mxCell>
        <mxCell id="pogm34RaVMidR476hEA9-33" style="edgeStyle=none;shape=connector;rounded=0;orthogonalLoop=1;jettySize=auto;html=1;entryX=0.5;entryY=1;entryDx=0;entryDy=0;strokeColor=#009999;align=center;verticalAlign=middle;fontFamily=Helvetica;fontSize=18;fontColor=default;labelBackgroundColor=default;endArrow=classicThin;endFill=1;" parent="1" source="pogm34RaVMidR476hEA9-34" target="pogm34RaVMidR476hEA9-38" edge="1">
          <mxGeometry relative="1" as="geometry" />
        </mxCell>
        <mxCell id="pogm34RaVMidR476hEA9-34" value="" style="ellipse;whiteSpace=wrap;html=1;aspect=fixed;fillColor=#b0e3e6;strokeColor=#0e8088;fontSize=18;" parent="1" vertex="1">
          <mxGeometry x="-659.9999999999999" y="-710.31" width="15" height="15" as="geometry" />
        </mxCell>
        <mxCell id="pogm34RaVMidR476hEA9-35" value="" style="shape=tableRow;horizontal=0;startSize=0;swimlaneHead=0;swimlaneBody=0;strokeColor=inherit;top=0;left=0;bottom=0;right=0;collapsible=0;dropTarget=0;fillColor=none;points=[[0,0.5],[1,0.5]];portConstraint=eastwest;fontSize=18;" parent="1" vertex="1">
          <mxGeometry x="-1118.12" y="-840" width="40" height="10" as="geometry" />
        </mxCell>
        <mxCell id="pogm34RaVMidR476hEA9-36" value="" style="shape=tableRow;horizontal=0;startSize=0;swimlaneHead=0;swimlaneBody=0;strokeColor=inherit;top=0;left=0;bottom=0;right=0;collapsible=0;dropTarget=0;fillColor=none;points=[[0,0.5],[1,0.5]];portConstraint=eastwest;fontSize=18;" parent="1" vertex="1">
          <mxGeometry x="-1118.12" y="-856" width="40" height="10" as="geometry" />
        </mxCell>
        <mxCell id="pogm34RaVMidR476hEA9-37" value="&lt;font face=&quot;Times New Roman&quot;&gt;$$(s,r,?,t+\Delta t)$$&lt;/font&gt;" style="text;html=1;align=center;verticalAlign=middle;whiteSpace=wrap;rounded=0;fontFamily=Helvetica;fontSize=18;fontColor=default;labelBackgroundColor=none;" parent="1" vertex="1">
          <mxGeometry x="-680" y="-680" width="60" height="30" as="geometry" />
        </mxCell>
        <mxCell id="pogm34RaVMidR476hEA9-38" value="&lt;font style=&quot;font-size: 14px;&quot;&gt;?&lt;/font&gt;" style="ellipse;whiteSpace=wrap;html=1;aspect=fixed;fillColor=#E6E6E6;strokeColor=#666666;fontColor=#333333;fontSize=18;" parent="1" vertex="1">
          <mxGeometry x="-660" y="-768.12" width="15" height="15" as="geometry" />
        </mxCell>
        <mxCell id="pogm34RaVMidR476hEA9-39" value="&lt;b&gt;&lt;font&gt;...&lt;/font&gt;&lt;/b&gt;" style="text;html=1;align=center;verticalAlign=middle;whiteSpace=wrap;rounded=0;fontSize=18;" parent="1" vertex="1">
          <mxGeometry x="-988.13" y="-755.31" width="60" height="30" as="geometry" />
        </mxCell>
        <mxCell id="pogm34RaVMidR476hEA9-40" style="edgeStyle=none;shape=connector;rounded=0;orthogonalLoop=1;jettySize=auto;html=1;entryX=1;entryY=1;entryDx=0;entryDy=0;strokeColor=#009999;align=center;verticalAlign=middle;fontFamily=Helvetica;fontSize=18;fontColor=default;labelBackgroundColor=default;endArrow=classicThin;endFill=1;" parent="1" source="pogm34RaVMidR476hEA9-44" target="pogm34RaVMidR476hEA9-65" edge="1">
          <mxGeometry relative="1" as="geometry" />
        </mxCell>
        <mxCell id="pogm34RaVMidR476hEA9-41" style="edgeStyle=none;shape=connector;rounded=0;orthogonalLoop=1;jettySize=auto;html=1;entryX=1;entryY=1;entryDx=0;entryDy=0;strokeColor=#009999;align=center;verticalAlign=middle;fontFamily=Helvetica;fontSize=18;fontColor=default;labelBackgroundColor=default;endArrow=classicThin;endFill=1;" parent="1" source="pogm34RaVMidR476hEA9-44" target="pogm34RaVMidR476hEA9-49" edge="1">
          <mxGeometry relative="1" as="geometry" />
        </mxCell>
        <mxCell id="pogm34RaVMidR476hEA9-42" style="edgeStyle=none;shape=connector;rounded=0;orthogonalLoop=1;jettySize=auto;html=1;entryX=0.5;entryY=1;entryDx=0;entryDy=0;strokeColor=#009999;align=center;verticalAlign=middle;fontFamily=Helvetica;fontSize=18;fontColor=default;labelBackgroundColor=default;endArrow=classicThin;endFill=1;" parent="1" source="pogm34RaVMidR476hEA9-44" target="pogm34RaVMidR476hEA9-55" edge="1">
          <mxGeometry relative="1" as="geometry" />
        </mxCell>
        <mxCell id="pogm34RaVMidR476hEA9-43" style="edgeStyle=none;shape=connector;rounded=0;orthogonalLoop=1;jettySize=auto;html=1;entryX=0;entryY=1;entryDx=0;entryDy=0;strokeColor=#009999;align=center;verticalAlign=middle;fontFamily=Helvetica;fontSize=18;fontColor=default;labelBackgroundColor=default;endArrow=classicThin;endFill=1;" parent="1" source="pogm34RaVMidR476hEA9-44" target="pogm34RaVMidR476hEA9-60" edge="1">
          <mxGeometry relative="1" as="geometry" />
        </mxCell>
        <mxCell id="pogm34RaVMidR476hEA9-44" value="" style="ellipse;whiteSpace=wrap;html=1;aspect=fixed;fillColor=#b0e3e6;strokeColor=#0e8088;fontSize=18;" parent="1" vertex="1">
          <mxGeometry x="-883.75" y="-840" width="15" height="15" as="geometry" />
        </mxCell>
        <mxCell id="pogm34RaVMidR476hEA9-45" value="$$h^0$$" style="text;html=1;align=center;verticalAlign=middle;whiteSpace=wrap;rounded=0;fontFamily=Helvetica;fontSize=18;fontColor=default;labelBackgroundColor=none;" parent="1" vertex="1">
          <mxGeometry x="-910.31" y="-840" width="30" height="24" as="geometry" />
        </mxCell>
        <mxCell id="pogm34RaVMidR476hEA9-46" style="edgeStyle=none;shape=connector;rounded=0;orthogonalLoop=1;jettySize=auto;html=1;entryX=1;entryY=1;entryDx=0;entryDy=0;strokeColor=#009999;align=center;verticalAlign=middle;fontFamily=Helvetica;fontSize=18;fontColor=default;labelBackgroundColor=default;endArrow=classicThin;endFill=1;" parent="1" source="pogm34RaVMidR476hEA9-49" target="pogm34RaVMidR476hEA9-70" edge="1">
          <mxGeometry relative="1" as="geometry" />
        </mxCell>
        <mxCell id="pogm34RaVMidR476hEA9-47" style="edgeStyle=none;shape=connector;rounded=0;orthogonalLoop=1;jettySize=auto;html=1;entryX=0.5;entryY=1;entryDx=0;entryDy=0;strokeColor=#009999;align=center;verticalAlign=middle;fontFamily=Helvetica;fontSize=18;fontColor=default;labelBackgroundColor=default;endArrow=classicThin;endFill=1;" parent="1" source="pogm34RaVMidR476hEA9-49" target="pogm34RaVMidR476hEA9-75" edge="1">
          <mxGeometry relative="1" as="geometry" />
        </mxCell>
        <mxCell id="pogm34RaVMidR476hEA9-48" style="edgeStyle=none;shape=connector;rounded=0;orthogonalLoop=1;jettySize=auto;html=1;entryX=0;entryY=1;entryDx=0;entryDy=0;strokeColor=#009999;align=center;verticalAlign=middle;fontFamily=Helvetica;fontSize=18;fontColor=default;labelBackgroundColor=default;endArrow=classicThin;endFill=1;" parent="1" source="pogm34RaVMidR476hEA9-49" target="pogm34RaVMidR476hEA9-98" edge="1">
          <mxGeometry relative="1" as="geometry" />
        </mxCell>
        <mxCell id="pogm34RaVMidR476hEA9-49" value="" style="ellipse;whiteSpace=wrap;html=1;aspect=fixed;fillColor=#b0e3e6;strokeColor=#0e8088;opacity=30;fontSize=18;" parent="1" vertex="1">
          <mxGeometry x="-920" y="-940" width="15" height="15" as="geometry" />
        </mxCell>
        <mxCell id="pogm34RaVMidR476hEA9-50" style="edgeStyle=none;shape=connector;rounded=0;orthogonalLoop=1;jettySize=auto;html=1;entryX=0;entryY=0.5;entryDx=0;entryDy=0;strokeColor=#009999;align=center;verticalAlign=middle;fontFamily=Helvetica;fontSize=18;fontColor=default;labelBackgroundColor=default;endArrow=classicThin;endFill=1;" parent="1" source="pogm34RaVMidR476hEA9-55" target="pogm34RaVMidR476hEA9-81" edge="1">
          <mxGeometry relative="1" as="geometry" />
        </mxCell>
        <mxCell id="pogm34RaVMidR476hEA9-51" style="edgeStyle=none;shape=connector;rounded=0;orthogonalLoop=1;jettySize=auto;html=1;strokeColor=#009999;align=center;verticalAlign=middle;fontFamily=Helvetica;fontSize=18;fontColor=default;labelBackgroundColor=default;endArrow=classicThin;endFill=1;" parent="1" source="pogm34RaVMidR476hEA9-55" target="pogm34RaVMidR476hEA9-75" edge="1">
          <mxGeometry relative="1" as="geometry" />
        </mxCell>
        <mxCell id="pogm34RaVMidR476hEA9-52" style="edgeStyle=none;shape=connector;rounded=0;orthogonalLoop=1;jettySize=auto;html=1;entryX=0;entryY=0.5;entryDx=0;entryDy=0;strokeColor=#009999;align=center;verticalAlign=middle;fontFamily=Helvetica;fontSize=18;fontColor=default;labelBackgroundColor=default;endArrow=classicThin;endFill=1;" parent="1" source="pogm34RaVMidR476hEA9-55" target="pogm34RaVMidR476hEA9-86" edge="1">
          <mxGeometry relative="1" as="geometry" />
        </mxCell>
        <mxCell id="pogm34RaVMidR476hEA9-53" style="edgeStyle=none;shape=connector;rounded=0;orthogonalLoop=1;jettySize=auto;html=1;entryX=1;entryY=0.5;entryDx=0;entryDy=0;strokeColor=#009999;align=center;verticalAlign=middle;fontFamily=Helvetica;fontSize=18;fontColor=default;labelBackgroundColor=default;endArrow=classicThin;endFill=1;" parent="1" source="pogm34RaVMidR476hEA9-55" target="pogm34RaVMidR476hEA9-70" edge="1">
          <mxGeometry relative="1" as="geometry" />
        </mxCell>
        <mxCell id="pogm34RaVMidR476hEA9-54" style="edgeStyle=none;shape=connector;rounded=0;orthogonalLoop=1;jettySize=auto;html=1;entryX=0;entryY=1;entryDx=0;entryDy=0;strokeColor=#009999;align=center;verticalAlign=middle;fontFamily=Helvetica;fontSize=18;fontColor=default;labelBackgroundColor=default;endArrow=classicThin;endFill=1;" parent="1" source="pogm34RaVMidR476hEA9-55" target="pogm34RaVMidR476hEA9-98" edge="1">
          <mxGeometry relative="1" as="geometry" />
        </mxCell>
        <mxCell id="pogm34RaVMidR476hEA9-55" value="" style="ellipse;whiteSpace=wrap;html=1;aspect=fixed;fillColor=#b0e3e6;strokeColor=#0e8088;opacity=30;fontSize=18;" parent="1" vertex="1">
          <mxGeometry x="-868.75" y="-940" width="15" height="15" as="geometry" />
        </mxCell>
        <mxCell id="pogm34RaVMidR476hEA9-56" style="edgeStyle=none;shape=connector;rounded=0;orthogonalLoop=1;jettySize=auto;html=1;entryX=1;entryY=1;entryDx=0;entryDy=0;strokeColor=#009999;align=center;verticalAlign=middle;fontFamily=Helvetica;fontSize=18;fontColor=default;labelBackgroundColor=default;endArrow=classicThin;endFill=1;" parent="1" source="pogm34RaVMidR476hEA9-60" target="pogm34RaVMidR476hEA9-81" edge="1">
          <mxGeometry relative="1" as="geometry" />
        </mxCell>
        <mxCell id="pogm34RaVMidR476hEA9-57" style="edgeStyle=none;shape=connector;rounded=0;orthogonalLoop=1;jettySize=auto;html=1;entryX=0.5;entryY=1;entryDx=0;entryDy=0;strokeColor=#009999;align=center;verticalAlign=middle;fontFamily=Helvetica;fontSize=18;fontColor=default;labelBackgroundColor=default;endArrow=classicThin;endFill=1;" parent="1" source="pogm34RaVMidR476hEA9-60" target="pogm34RaVMidR476hEA9-86" edge="1">
          <mxGeometry relative="1" as="geometry" />
        </mxCell>
        <mxCell id="pogm34RaVMidR476hEA9-58" style="edgeStyle=none;shape=connector;rounded=0;orthogonalLoop=1;jettySize=auto;html=1;entryX=1;entryY=1;entryDx=0;entryDy=0;strokeColor=#009999;align=center;verticalAlign=middle;fontFamily=Helvetica;fontSize=18;fontColor=default;labelBackgroundColor=default;endArrow=classicThin;endFill=1;" parent="1" source="pogm34RaVMidR476hEA9-60" target="pogm34RaVMidR476hEA9-75" edge="1">
          <mxGeometry relative="1" as="geometry" />
        </mxCell>
        <mxCell id="pogm34RaVMidR476hEA9-59" style="edgeStyle=none;shape=connector;rounded=0;orthogonalLoop=1;jettySize=auto;html=1;entryX=0.5;entryY=1;entryDx=0;entryDy=0;strokeColor=#009999;align=center;verticalAlign=middle;fontFamily=Helvetica;fontSize=18;fontColor=default;labelBackgroundColor=default;endArrow=classicThin;endFill=1;" parent="1" source="pogm34RaVMidR476hEA9-60" target="pogm34RaVMidR476hEA9-98" edge="1">
          <mxGeometry relative="1" as="geometry" />
        </mxCell>
        <mxCell id="pogm34RaVMidR476hEA9-60" value="" style="ellipse;whiteSpace=wrap;html=1;aspect=fixed;fillColor=#b0e3e6;strokeColor=#0e8088;opacity=30;fontSize=18;" parent="1" vertex="1">
          <mxGeometry x="-800.31" y="-940" width="15" height="15" as="geometry" />
        </mxCell>
        <mxCell id="pogm34RaVMidR476hEA9-61" style="edgeStyle=none;shape=connector;rounded=0;orthogonalLoop=1;jettySize=auto;html=1;entryX=0;entryY=1;entryDx=0;entryDy=0;strokeColor=#009999;align=center;verticalAlign=middle;fontFamily=Helvetica;fontSize=18;fontColor=default;labelBackgroundColor=default;endArrow=classicThin;endFill=1;" parent="1" source="pogm34RaVMidR476hEA9-65" target="pogm34RaVMidR476hEA9-70" edge="1">
          <mxGeometry relative="1" as="geometry" />
        </mxCell>
        <mxCell id="pogm34RaVMidR476hEA9-62" style="edgeStyle=none;shape=connector;rounded=0;orthogonalLoop=1;jettySize=auto;html=1;entryX=0;entryY=1;entryDx=0;entryDy=0;strokeColor=#009999;align=center;verticalAlign=middle;fontFamily=Helvetica;fontSize=18;fontColor=default;labelBackgroundColor=default;endArrow=classicThin;endFill=1;" parent="1" source="pogm34RaVMidR476hEA9-65" target="pogm34RaVMidR476hEA9-75" edge="1">
          <mxGeometry relative="1" as="geometry" />
        </mxCell>
        <mxCell id="pogm34RaVMidR476hEA9-63" style="edgeStyle=none;shape=connector;rounded=0;orthogonalLoop=1;jettySize=auto;html=1;entryX=0.5;entryY=1;entryDx=0;entryDy=0;strokeColor=#009999;align=center;verticalAlign=middle;fontFamily=Helvetica;fontSize=18;fontColor=default;labelBackgroundColor=default;endArrow=classicThin;endFill=1;" parent="1" source="pogm34RaVMidR476hEA9-65" target="pogm34RaVMidR476hEA9-81" edge="1">
          <mxGeometry relative="1" as="geometry" />
        </mxCell>
        <mxCell id="pogm34RaVMidR476hEA9-64" style="edgeStyle=none;shape=connector;rounded=0;orthogonalLoop=1;jettySize=auto;html=1;entryX=0.5;entryY=1;entryDx=0;entryDy=0;strokeColor=#009999;align=center;verticalAlign=middle;fontFamily=Helvetica;fontSize=18;fontColor=default;labelBackgroundColor=default;endArrow=classicThin;endFill=1;" parent="1" source="pogm34RaVMidR476hEA9-65" target="pogm34RaVMidR476hEA9-86" edge="1">
          <mxGeometry relative="1" as="geometry" />
        </mxCell>
        <mxCell id="pogm34RaVMidR476hEA9-65" value="" style="ellipse;whiteSpace=wrap;html=1;aspect=fixed;fillColor=#b0e3e6;strokeColor=#0e8088;opacity=30;fontSize=18;" parent="1" vertex="1">
          <mxGeometry x="-980.63" y="-940" width="15" height="15" as="geometry" />
        </mxCell>
        <mxCell id="pogm34RaVMidR476hEA9-66" style="edgeStyle=none;shape=connector;rounded=0;orthogonalLoop=1;jettySize=auto;html=1;entryX=0;entryY=1;entryDx=0;entryDy=0;strokeColor=#9AC7BF;align=center;verticalAlign=middle;fontFamily=Helvetica;fontSize=18;fontColor=default;labelBackgroundColor=default;endArrow=classicThin;endFill=1;" parent="1" source="pogm34RaVMidR476hEA9-70" target="pogm34RaVMidR476hEA9-100" edge="1">
          <mxGeometry relative="1" as="geometry" />
        </mxCell>
        <mxCell id="pogm34RaVMidR476hEA9-67" style="edgeStyle=none;shape=connector;rounded=0;orthogonalLoop=1;jettySize=auto;html=1;entryX=0.5;entryY=1;entryDx=0;entryDy=0;strokeColor=#9AC7BF;align=center;verticalAlign=middle;fontFamily=Helvetica;fontSize=18;fontColor=default;labelBackgroundColor=default;endArrow=classicThin;endFill=1;" parent="1" source="pogm34RaVMidR476hEA9-70" target="pogm34RaVMidR476hEA9-88" edge="1">
          <mxGeometry relative="1" as="geometry" />
        </mxCell>
        <mxCell id="pogm34RaVMidR476hEA9-68" style="edgeStyle=none;shape=connector;rounded=0;orthogonalLoop=1;jettySize=auto;html=1;entryX=0.5;entryY=1;entryDx=0;entryDy=0;strokeColor=#9AC7BF;align=center;verticalAlign=middle;fontFamily=Helvetica;fontSize=18;fontColor=default;labelBackgroundColor=default;endArrow=classicThin;endFill=1;" parent="1" source="pogm34RaVMidR476hEA9-70" target="pogm34RaVMidR476hEA9-102" edge="1">
          <mxGeometry relative="1" as="geometry" />
        </mxCell>
        <mxCell id="pogm34RaVMidR476hEA9-69" style="edgeStyle=none;shape=connector;rounded=0;orthogonalLoop=1;jettySize=auto;html=1;entryX=0.5;entryY=1;entryDx=0;entryDy=0;strokeColor=#9AC7BF;align=center;verticalAlign=middle;fontFamily=Helvetica;fontSize=18;fontColor=default;labelBackgroundColor=default;endArrow=classicThin;endFill=1;" parent="1" source="pogm34RaVMidR476hEA9-70" target="pogm34RaVMidR476hEA9-104" edge="1">
          <mxGeometry relative="1" as="geometry" />
        </mxCell>
        <mxCell id="pogm34RaVMidR476hEA9-70" value="" style="ellipse;whiteSpace=wrap;html=1;aspect=fixed;fillColor=#b0e3e6;strokeColor=#0e8088;opacity=30;fontSize=18;" parent="1" vertex="1">
          <mxGeometry x="-965.63" y="-980" width="15" height="15" as="geometry" />
        </mxCell>
        <mxCell id="pogm34RaVMidR476hEA9-71" style="edgeStyle=none;shape=connector;rounded=0;orthogonalLoop=1;jettySize=auto;html=1;entryX=1;entryY=1;entryDx=0;entryDy=0;strokeColor=#9AC7BF;align=center;verticalAlign=middle;fontFamily=Helvetica;fontSize=18;fontColor=default;labelBackgroundColor=default;endArrow=classicThin;endFill=1;" parent="1" source="pogm34RaVMidR476hEA9-75" target="pogm34RaVMidR476hEA9-88" edge="1">
          <mxGeometry relative="1" as="geometry" />
        </mxCell>
        <mxCell id="pogm34RaVMidR476hEA9-72" style="edgeStyle=none;shape=connector;rounded=0;orthogonalLoop=1;jettySize=auto;html=1;entryX=1;entryY=1;entryDx=0;entryDy=0;strokeColor=#9AC7BF;align=center;verticalAlign=middle;fontFamily=Helvetica;fontSize=18;fontColor=default;labelBackgroundColor=default;endArrow=classicThin;endFill=1;" parent="1" source="pogm34RaVMidR476hEA9-75" target="pogm34RaVMidR476hEA9-100" edge="1">
          <mxGeometry relative="1" as="geometry" />
        </mxCell>
        <mxCell id="pogm34RaVMidR476hEA9-73" style="edgeStyle=none;shape=connector;rounded=0;orthogonalLoop=1;jettySize=auto;html=1;entryX=0.5;entryY=1;entryDx=0;entryDy=0;strokeColor=#9AC7BF;align=center;verticalAlign=middle;fontFamily=Helvetica;fontSize=18;fontColor=default;labelBackgroundColor=default;endArrow=classicThin;endFill=1;" parent="1" source="pogm34RaVMidR476hEA9-75" target="pogm34RaVMidR476hEA9-102" edge="1">
          <mxGeometry relative="1" as="geometry" />
        </mxCell>
        <mxCell id="pogm34RaVMidR476hEA9-74" style="edgeStyle=none;shape=connector;rounded=0;orthogonalLoop=1;jettySize=auto;html=1;entryX=0.5;entryY=1;entryDx=0;entryDy=0;strokeColor=#9AC7BF;align=center;verticalAlign=middle;fontFamily=Helvetica;fontSize=18;fontColor=default;labelBackgroundColor=default;endArrow=classicThin;endFill=1;" parent="1" source="pogm34RaVMidR476hEA9-75" target="pogm34RaVMidR476hEA9-92" edge="1">
          <mxGeometry relative="1" as="geometry" />
        </mxCell>
        <mxCell id="pogm34RaVMidR476hEA9-75" value="" style="ellipse;whiteSpace=wrap;html=1;aspect=fixed;fillColor=#b0e3e6;strokeColor=#0e8088;opacity=30;fontSize=18;" parent="1" vertex="1">
          <mxGeometry x="-920" y="-980" width="15" height="15" as="geometry" />
        </mxCell>
        <mxCell id="pogm34RaVMidR476hEA9-76" style="edgeStyle=none;shape=connector;rounded=0;orthogonalLoop=1;jettySize=auto;html=1;entryX=1;entryY=1;entryDx=0;entryDy=0;strokeColor=#9AC7BF;align=center;verticalAlign=middle;fontFamily=Helvetica;fontSize=18;fontColor=default;labelBackgroundColor=default;endArrow=classicThin;endFill=1;" parent="1" source="pogm34RaVMidR476hEA9-81" target="pogm34RaVMidR476hEA9-102" edge="1">
          <mxGeometry relative="1" as="geometry" />
        </mxCell>
        <mxCell id="pogm34RaVMidR476hEA9-77" style="edgeStyle=none;shape=connector;rounded=0;orthogonalLoop=1;jettySize=auto;html=1;entryX=0.5;entryY=1;entryDx=0;entryDy=0;strokeColor=#9AC7BF;align=center;verticalAlign=middle;fontFamily=Helvetica;fontSize=18;fontColor=default;labelBackgroundColor=default;endArrow=classicThin;endFill=1;" parent="1" edge="1">
          <mxGeometry relative="1" as="geometry">
            <mxPoint x="-866.4102514717049" y="-978.7403772075575" as="sourcePoint" />
            <mxPoint x="-877.25" y="-995" as="targetPoint" />
          </mxGeometry>
        </mxCell>
        <mxCell id="pogm34RaVMidR476hEA9-78" style="edgeStyle=none;shape=connector;rounded=0;orthogonalLoop=1;jettySize=auto;html=1;entryX=0.5;entryY=1;entryDx=0;entryDy=0;strokeColor=#9AC7BF;align=center;verticalAlign=middle;fontFamily=Helvetica;fontSize=18;fontColor=default;labelBackgroundColor=default;endArrow=classicThin;endFill=1;" parent="1" source="pogm34RaVMidR476hEA9-81" target="pogm34RaVMidR476hEA9-92" edge="1">
          <mxGeometry relative="1" as="geometry" />
        </mxCell>
        <mxCell id="pogm34RaVMidR476hEA9-79" style="edgeStyle=none;shape=connector;rounded=0;orthogonalLoop=1;jettySize=auto;html=1;entryX=0.5;entryY=1;entryDx=0;entryDy=0;strokeColor=#9AC7BF;align=center;verticalAlign=middle;fontFamily=Helvetica;fontSize=18;fontColor=default;labelBackgroundColor=default;endArrow=classicThin;endFill=1;" parent="1" source="pogm34RaVMidR476hEA9-81" target="pogm34RaVMidR476hEA9-104" edge="1">
          <mxGeometry relative="1" as="geometry" />
        </mxCell>
        <mxCell id="pogm34RaVMidR476hEA9-80" style="edgeStyle=none;shape=connector;rounded=0;orthogonalLoop=1;jettySize=auto;html=1;entryX=0;entryY=1;entryDx=0;entryDy=0;strokeColor=#9AC7BF;align=center;verticalAlign=middle;fontFamily=Helvetica;fontSize=18;fontColor=default;labelBackgroundColor=default;endArrow=classicThin;endFill=1;" parent="1" source="pogm34RaVMidR476hEA9-81" target="pogm34RaVMidR476hEA9-106" edge="1">
          <mxGeometry relative="1" as="geometry" />
        </mxCell>
        <mxCell id="pogm34RaVMidR476hEA9-81" value="" style="ellipse;whiteSpace=wrap;html=1;aspect=fixed;fillColor=#b0e3e6;strokeColor=#0e8088;opacity=30;fontSize=18;" parent="1" vertex="1">
          <mxGeometry x="-868.75" y="-980" width="15" height="15" as="geometry" />
        </mxCell>
        <mxCell id="pogm34RaVMidR476hEA9-82" style="edgeStyle=none;shape=connector;rounded=0;orthogonalLoop=1;jettySize=auto;html=1;entryX=1;entryY=1;entryDx=0;entryDy=0;strokeColor=#9AC7BF;align=center;verticalAlign=middle;fontFamily=Helvetica;fontSize=18;fontColor=default;labelBackgroundColor=default;endArrow=classicThin;endFill=1;" parent="1" source="pogm34RaVMidR476hEA9-86" target="pogm34RaVMidR476hEA9-90" edge="1">
          <mxGeometry relative="1" as="geometry" />
        </mxCell>
        <mxCell id="pogm34RaVMidR476hEA9-83" style="edgeStyle=none;shape=connector;rounded=0;orthogonalLoop=1;jettySize=auto;html=1;entryX=1;entryY=1;entryDx=0;entryDy=0;strokeColor=#9AC7BF;align=center;verticalAlign=middle;fontFamily=Helvetica;fontSize=18;fontColor=default;labelBackgroundColor=default;endArrow=classicThin;endFill=1;" parent="1" source="pogm34RaVMidR476hEA9-86" target="pogm34RaVMidR476hEA9-92" edge="1">
          <mxGeometry relative="1" as="geometry" />
        </mxCell>
        <mxCell id="pogm34RaVMidR476hEA9-84" style="edgeStyle=none;shape=connector;rounded=0;orthogonalLoop=1;jettySize=auto;html=1;entryX=0.5;entryY=1;entryDx=0;entryDy=0;strokeColor=#9AC7BF;align=center;verticalAlign=middle;fontFamily=Helvetica;fontSize=18;fontColor=default;labelBackgroundColor=default;endArrow=classicThin;endFill=1;" parent="1" source="pogm34RaVMidR476hEA9-86" target="pogm34RaVMidR476hEA9-104" edge="1">
          <mxGeometry relative="1" as="geometry" />
        </mxCell>
        <mxCell id="pogm34RaVMidR476hEA9-85" style="edgeStyle=none;shape=connector;rounded=0;orthogonalLoop=1;jettySize=auto;html=1;entryX=0.5;entryY=1;entryDx=0;entryDy=0;strokeColor=#9AC7BF;align=center;verticalAlign=middle;fontFamily=Helvetica;fontSize=18;fontColor=default;labelBackgroundColor=default;endArrow=classicThin;endFill=1;" parent="1" source="pogm34RaVMidR476hEA9-86" target="pogm34RaVMidR476hEA9-106" edge="1">
          <mxGeometry relative="1" as="geometry" />
        </mxCell>
        <mxCell id="pogm34RaVMidR476hEA9-86" value="" style="ellipse;whiteSpace=wrap;html=1;aspect=fixed;fillColor=#b0e3e6;strokeColor=#0e8088;opacity=30;fontSize=18;" parent="1" vertex="1">
          <mxGeometry x="-822.81" y="-980" width="15" height="15" as="geometry" />
        </mxCell>
        <mxCell id="pogm34RaVMidR476hEA9-87" style="edgeStyle=none;shape=connector;rounded=0;orthogonalLoop=1;jettySize=auto;html=1;entryX=0;entryY=0.5;entryDx=0;entryDy=0;strokeColor=#9AC7BF;align=center;verticalAlign=middle;fontFamily=Helvetica;fontSize=18;fontColor=default;labelBackgroundColor=default;endArrow=classicThin;endFill=1;" parent="1" source="pogm34RaVMidR476hEA9-88" target="pogm34RaVMidR476hEA9-93" edge="1">
          <mxGeometry relative="1" as="geometry" />
        </mxCell>
        <mxCell id="pogm34RaVMidR476hEA9-88" value="" style="ellipse;whiteSpace=wrap;html=1;aspect=fixed;fillColor=#b0e3e6;strokeColor=#0e8088;opacity=30;fontSize=18;" parent="1" vertex="1">
          <mxGeometry x="-942.5" y="-1010" width="15" height="15" as="geometry" />
        </mxCell>
        <mxCell id="pogm34RaVMidR476hEA9-89" style="edgeStyle=none;shape=connector;rounded=0;orthogonalLoop=1;jettySize=auto;html=1;entryX=0;entryY=1;entryDx=0;entryDy=0;strokeColor=#9AC7BF;align=center;verticalAlign=middle;fontFamily=Helvetica;fontSize=18;fontColor=default;labelBackgroundColor=default;endArrow=classicThin;endFill=1;" parent="1" source="pogm34RaVMidR476hEA9-90" target="pogm34RaVMidR476hEA9-93" edge="1">
          <mxGeometry relative="1" as="geometry" />
        </mxCell>
        <mxCell id="pogm34RaVMidR476hEA9-90" value="" style="ellipse;whiteSpace=wrap;html=1;aspect=fixed;fillColor=#b0e3e6;strokeColor=#0e8088;opacity=30;fontSize=18;" parent="1" vertex="1">
          <mxGeometry x="-883.75" y="-1010" width="15" height="15" as="geometry" />
        </mxCell>
        <mxCell id="pogm34RaVMidR476hEA9-91" style="edgeStyle=none;shape=connector;rounded=0;orthogonalLoop=1;jettySize=auto;html=1;entryX=0.5;entryY=1;entryDx=0;entryDy=0;strokeColor=#9AC7BF;align=center;verticalAlign=middle;fontFamily=Helvetica;fontSize=18;fontColor=default;labelBackgroundColor=default;endArrow=classicThin;endFill=1;" parent="1" source="pogm34RaVMidR476hEA9-92" target="pogm34RaVMidR476hEA9-93" edge="1">
          <mxGeometry relative="1" as="geometry" />
        </mxCell>
        <mxCell id="pogm34RaVMidR476hEA9-92" value="" style="ellipse;whiteSpace=wrap;html=1;aspect=fixed;fillColor=#b0e3e6;strokeColor=#0e8088;opacity=30;fontSize=18;" parent="1" vertex="1">
          <mxGeometry x="-853.75" y="-1010" width="15" height="15" as="geometry" />
        </mxCell>
        <mxCell id="pogm34RaVMidR476hEA9-93" value="" style="ellipse;whiteSpace=wrap;html=1;aspect=fixed;fillColor=#f8cecc;strokeColor=#b85450;fontSize=18;" parent="1" vertex="1">
          <mxGeometry x="-895.31" y="-1050" width="15" height="15" as="geometry" />
        </mxCell>
        <mxCell id="pogm34RaVMidR476hEA9-94" style="edgeStyle=none;shape=connector;rounded=0;orthogonalLoop=1;jettySize=auto;html=1;entryX=0.5;entryY=1;entryDx=0;entryDy=0;strokeColor=#9AC7BF;align=center;verticalAlign=middle;fontFamily=Helvetica;fontSize=18;fontColor=default;labelBackgroundColor=default;endArrow=classicThin;endFill=1;" parent="1" source="pogm34RaVMidR476hEA9-98" target="pogm34RaVMidR476hEA9-102" edge="1">
          <mxGeometry relative="1" as="geometry" />
        </mxCell>
        <mxCell id="pogm34RaVMidR476hEA9-95" style="edgeStyle=none;shape=connector;rounded=0;orthogonalLoop=1;jettySize=auto;html=1;entryX=0.5;entryY=1;entryDx=0;entryDy=0;strokeColor=#9AC7BF;align=center;verticalAlign=middle;fontFamily=Helvetica;fontSize=18;fontColor=default;labelBackgroundColor=default;endArrow=classicThin;endFill=1;" parent="1" source="pogm34RaVMidR476hEA9-98" target="pogm34RaVMidR476hEA9-90" edge="1">
          <mxGeometry relative="1" as="geometry" />
        </mxCell>
        <mxCell id="pogm34RaVMidR476hEA9-96" style="edgeStyle=none;shape=connector;rounded=0;orthogonalLoop=1;jettySize=auto;html=1;entryX=1;entryY=1;entryDx=0;entryDy=0;strokeColor=#9AC7BF;align=center;verticalAlign=middle;fontFamily=Helvetica;fontSize=18;fontColor=default;labelBackgroundColor=default;endArrow=classicThin;endFill=1;" parent="1" source="pogm34RaVMidR476hEA9-98" target="pogm34RaVMidR476hEA9-104" edge="1">
          <mxGeometry relative="1" as="geometry" />
        </mxCell>
        <mxCell id="pogm34RaVMidR476hEA9-97" style="edgeStyle=none;shape=connector;rounded=0;orthogonalLoop=1;jettySize=auto;html=1;entryX=1;entryY=1;entryDx=0;entryDy=0;strokeColor=#9AC7BF;align=center;verticalAlign=middle;fontFamily=Helvetica;fontSize=18;fontColor=default;labelBackgroundColor=default;endArrow=classicThin;endFill=1;" parent="1" source="pogm34RaVMidR476hEA9-98" target="pogm34RaVMidR476hEA9-106" edge="1">
          <mxGeometry relative="1" as="geometry" />
        </mxCell>
        <mxCell id="pogm34RaVMidR476hEA9-98" value="" style="ellipse;whiteSpace=wrap;html=1;aspect=fixed;fillColor=#b0e3e6;strokeColor=#0e8088;opacity=30;fontSize=18;" parent="1" vertex="1">
          <mxGeometry x="-785.31" y="-980" width="15" height="15" as="geometry" />
        </mxCell>
        <mxCell id="pogm34RaVMidR476hEA9-99" style="edgeStyle=none;shape=connector;rounded=0;orthogonalLoop=1;jettySize=auto;html=1;entryX=0;entryY=0.5;entryDx=0;entryDy=0;strokeColor=#9AC7BF;align=center;verticalAlign=middle;fontFamily=Helvetica;fontSize=18;fontColor=default;labelBackgroundColor=default;endArrow=classicThin;endFill=1;textOpacity=10;" parent="1" source="pogm34RaVMidR476hEA9-100" target="pogm34RaVMidR476hEA9-93" edge="1">
          <mxGeometry relative="1" as="geometry" />
        </mxCell>
        <mxCell id="pogm34RaVMidR476hEA9-100" value="" style="ellipse;whiteSpace=wrap;html=1;aspect=fixed;fillColor=#b0e3e6;strokeColor=#0e8088;opacity=30;fontSize=18;" parent="1" vertex="1">
          <mxGeometry x="-970" y="-1010" width="15" height="15" as="geometry" />
        </mxCell>
        <mxCell id="pogm34RaVMidR476hEA9-101" style="edgeStyle=none;shape=connector;rounded=0;orthogonalLoop=1;jettySize=auto;html=1;entryX=0;entryY=0.5;entryDx=0;entryDy=0;strokeColor=#9AC7BF;align=center;verticalAlign=middle;fontFamily=Helvetica;fontSize=18;fontColor=default;labelBackgroundColor=default;endArrow=classicThin;endFill=1;" parent="1" source="pogm34RaVMidR476hEA9-102" target="pogm34RaVMidR476hEA9-93" edge="1">
          <mxGeometry relative="1" as="geometry" />
        </mxCell>
        <mxCell id="pogm34RaVMidR476hEA9-102" value="" style="ellipse;whiteSpace=wrap;html=1;aspect=fixed;fillColor=#b0e3e6;strokeColor=#0e8088;opacity=30;fontSize=18;" parent="1" vertex="1">
          <mxGeometry x="-913.75" y="-1010" width="15" height="15" as="geometry" />
        </mxCell>
        <mxCell id="pogm34RaVMidR476hEA9-103" style="edgeStyle=none;shape=connector;rounded=0;orthogonalLoop=1;jettySize=auto;html=1;entryX=1;entryY=1;entryDx=0;entryDy=0;strokeColor=#9AC7BF;align=center;verticalAlign=middle;fontFamily=Helvetica;fontSize=18;fontColor=default;labelBackgroundColor=default;endArrow=classicThin;endFill=1;" parent="1" source="pogm34RaVMidR476hEA9-104" target="pogm34RaVMidR476hEA9-93" edge="1">
          <mxGeometry relative="1" as="geometry" />
        </mxCell>
        <mxCell id="pogm34RaVMidR476hEA9-104" value="" style="ellipse;whiteSpace=wrap;html=1;aspect=fixed;fillColor=#b0e3e6;strokeColor=#0e8088;opacity=30;fontSize=18;" parent="1" vertex="1">
          <mxGeometry x="-827" y="-1010" width="15" height="15" as="geometry" />
        </mxCell>
        <mxCell id="pogm34RaVMidR476hEA9-105" style="edgeStyle=none;shape=connector;rounded=0;orthogonalLoop=1;jettySize=auto;html=1;entryX=1;entryY=1;entryDx=0;entryDy=0;strokeColor=#9AC7BF;align=center;verticalAlign=middle;fontFamily=Helvetica;fontSize=18;fontColor=default;labelBackgroundColor=default;endArrow=classicThin;endFill=1;textOpacity=10;" parent="1" source="pogm34RaVMidR476hEA9-106" target="pogm34RaVMidR476hEA9-93" edge="1">
          <mxGeometry relative="1" as="geometry" />
        </mxCell>
        <mxCell id="pogm34RaVMidR476hEA9-106" value="" style="ellipse;whiteSpace=wrap;html=1;aspect=fixed;fillColor=#b0e3e6;strokeColor=#0e8088;opacity=30;fontSize=18;" parent="1" vertex="1">
          <mxGeometry x="-800.31" y="-1010" width="15" height="15" as="geometry" />
        </mxCell>
        <mxCell id="pogm34RaVMidR476hEA9-107" value="&lt;br&gt;&lt;div&gt;&lt;font face=&quot;宋体&quot;&gt;$$[t-m,t]$$&lt;/font&gt;&lt;/div&gt;" style="text;html=1;align=center;verticalAlign=middle;whiteSpace=wrap;rounded=0;fontFamily=Helvetica;fontSize=18;fontColor=default;labelBackgroundColor=none;" parent="1" vertex="1">
          <mxGeometry x="-1078.63" y="-987.5" width="68" height="30" as="geometry" />
        </mxCell>
        <mxCell id="pogm34RaVMidR476hEA9-108" value="&lt;br&gt;&lt;div&gt;&lt;font face=&quot;宋体&quot;&gt;$$[0,t]$$&lt;/font&gt;&lt;/div&gt;" style="text;html=1;align=center;verticalAlign=middle;whiteSpace=wrap;rounded=0;fontFamily=Helvetica;fontSize=18;fontColor=default;labelBackgroundColor=none;" parent="1" vertex="1">
          <mxGeometry x="-1078.6299999999999" y="-903" width="68" height="30" as="geometry" />
        </mxCell>
        <mxCell id="pogm34RaVMidR476hEA9-109" value="$$h^1$$" style="text;html=1;align=center;verticalAlign=middle;whiteSpace=wrap;rounded=0;fontFamily=Helvetica;fontSize=18;fontColor=default;labelBackgroundColor=none;" parent="1" vertex="1">
          <mxGeometry x="-1010.63" y="-944" width="30" height="24" as="geometry" />
        </mxCell>
        <mxCell id="pogm34RaVMidR476hEA9-110" value="$$h^{\ell}$$" style="text;html=1;align=center;verticalAlign=middle;whiteSpace=wrap;rounded=0;fontFamily=Helvetica;fontSize=18;fontColor=default;labelBackgroundColor=none;" parent="1" vertex="1">
          <mxGeometry x="-1005.9300000000001" y="-1014" width="30" height="24" as="geometry" />
        </mxCell>
        <mxCell id="pogm34RaVMidR476hEA9-111" value="&lt;b&gt;&lt;font&gt;...&lt;/font&gt;&lt;/b&gt;" style="text;html=1;align=center;verticalAlign=middle;whiteSpace=wrap;rounded=0;fontSize=18;" parent="1" vertex="1">
          <mxGeometry x="-975.93" y="-1040" width="42.5" height="26" as="geometry" />
        </mxCell>
        <mxCell id="pogm34RaVMidR476hEA9-112" value="&lt;b&gt;&lt;font&gt;...&lt;/font&gt;&lt;/b&gt;" style="text;html=1;align=center;verticalAlign=middle;whiteSpace=wrap;rounded=0;fontSize=18;" parent="1" vertex="1">
          <mxGeometry x="-1008.13" y="-1000" width="42.5" height="26" as="geometry" />
        </mxCell>
        <mxCell id="pogm34RaVMidR476hEA9-119" value="&lt;font face=&quot;宋体&quot; style=&quot;font-size: 18px;&quot;&gt;局部深层传播&lt;/font&gt;" style="text;whiteSpace=wrap;html=1;" parent="1" vertex="1">
          <mxGeometry x="-1090.93" y="-1050" width="110" height="40" as="geometry" />
        </mxCell>
        <mxCell id="pogm34RaVMidR476hEA9-120" value="&lt;font face=&quot;宋体&quot; style=&quot;font-size: 18px;&quot;&gt;全局浅层传播&lt;/font&gt;" style="text;whiteSpace=wrap;html=1;" parent="1" vertex="1">
          <mxGeometry x="-1090.6299999999999" y="-920" width="110" height="40" as="geometry" />
        </mxCell>
      </root>
    </mxGraphModel>
  </diagram>
</mxfile>
